{"title":"The Croods (2013) BRrip 720p x264 Dual Audio [Eng DD 5.1-Hindi D","uid":11057725,"size":1509998949,"categoryP":"video","categoryS":"hd___movies","magnet":"?xt=urn:btih:d90ba4a2b0b91df77f9a1313e27d4876c8b6c115&amp;dn=The+Croods+%282013%29+BRrip+720p+x264+Dual+Audio+%5BEng+DD+5.1-Hindi+D&amp;tr=udp%3A%2F%2Ftracker.openbittorrent.com%3A80&amp;tr=udp%3A%2F%2Fopen.demonii.com%3A1337&amp;tr=udp%3A%2F%2Ftracker.coppersurfer.tk%3A6969&amp;tr=udp%3A%2F%2Fexodus.desync.com%3A6969","seeders":0,"leechers":1,"uploader":"Xdesiars","files":5,"time":1411135030,"description":"Format                                   : Matroska\nFormat version                           : Version 2\nFile size                                : 1.39 GiB\nDuration                                 : 1h 38mn\nOverall bit rate                         : 2 024 Kbps\nMovie name                               : The Croods (2013) by XdesiArsenal [ExD-XMR]\nEncoded date                             : UTC 2014-09-18 16:34:35\nWriting application                      : mkvmerge v5.0.1 ('Es ist Sommer') built on Nov 23 2011 20:48:57\nWriting library                          : libebml v1.2.2 + libmatroska v1.3.0\n\nVideo\nID                                       : 1\nFormat                                   : AVC\nFormat/Info                              : Advanced Video Codec\nFormat profile                           : &lt;a class=&quot;__cf_email__&quot; href=&quot;/cdn-cgi/l/email-protection&quot; data-cfemail=&quot;1e537f77705e522d302f&quot;&gt;[email&amp;#160;protected]&lt;/a&gt;&lt;script data-cfhash='f9e31' type=&quot;text/javascript&quot;&gt;\n/* &lt;![CDATA[ */!function(){try{var t=&quot;currentScript&quot;in document?document.currentScript:function(){for(var t=document.getElementsByTagName(&quot;script&quot;),e=t.length;e--;)if(t[e].getAttribute(&quot;data-cfhash&quot;))return t[e]}();if(t&amp;&amp;t.previousSibling){var e,r,n,i,c=t.previousSibling,a=c.getAttribute(&quot;data-cfemail&quot;);if(a){for(e=&quot;&quot;,r=parseInt(a.substr(0,2),16),n=2;a.length-n;n+=2)i=parseInt(a.substr(n,2),16)^r,e+=String.fromCharCode(i);e=document.createTextNode(e),c.parentNode.replaceChild(e,c)}t.parentNode.removeChild(t);}}catch(u){}}()/* ]]&gt; */&lt;/script&gt;\nFormat settings, CABAC                   : Yes\nFormat settings, ReFrames                : 4 frames\nMuxing mode                              : Header stripping\nCodec ID                                 : V_MPEG4/ISO/AVC\nDuration                                 : 1h 38mn\nBit rate                                 : 1 472 Kbps\nWidth                                    : 1 280 pixels\nHeight                                   : 544 pixels\nDisplay aspect ratio                     : 2.35:1\nFrame rate mode                          : Constant\nFrame rate                               : 23.976 fps\nColor space                              : YUV\nChroma subsampling                       : 4:2:0\nBit depth                                : 8 bits\nScan type                                : Progressive\nBits/(Pixel*Frame)                       : 0.088\nStream size                              : 1.01 GiB (73%)\nTitle                                    : The Croods (2013) by XdesiArsenal [ExD-XMR]\nWriting library                          : x264 core 112\nLanguage                                 : English\nDefault                                  : Yes\nForced                                   : No\nColor primaries                          : BT.709\nTransfer characteristics                 : BT.709\nMatrix coefficients                      : BT.709\n\nAudio #1\nID                                       : 2\nFormat                                   : AC-3\nFormat/Info                              : Audio Coding 3\nMode extension                           : CM (complete main)\nFormat settings, Endianness              : Big\nMuxing mode                              : Header stripping\nCodec ID                                 : A_AC3\nDuration                                 : 1h 38mn\nBit rate mode                            : Constant\nBit rate                                 : 256 Kbps\nChannel(s)                               : 6 channels\nChannel positions                        : Front: L C R, Side: L R, LFE\nSampling rate                            : 48.0 KHz\nBit depth                                : 16 bits\nCompression mode                         : Lossy\nStream size                              : 181 MiB (13%)\nTitle                                    : XdesiArsenal\nLanguage                                 : English\nDefault                                  : No\nForced                                   : No\n\nAudio #2\nID                                       : 3\nFormat                                   : AC-3\nFormat/Info                              : Audio Coding 3\nMode extension                           : CM (complete main)\nFormat settings, Endianness              : Big\nMuxing mode                              : Header stripping\nCodec ID                                 : A_AC3\nDuration                                 : 1h 38mn\nBit rate mode                            : Constant\nBit rate                                 : 256 Kbps\nChannel(s)                               : 6 channels\nChannel positions                        : Front: L C R, Side: L R, LFE\nSampling rate                            : 48.0 KHz\nBit depth                                : 16 bits\nCompression mode                         : Lossy\nStream size                              : 181 MiB (13%)\nTitle                                    : XdesiArsenal\nLanguage                                 : Hindi\nDefault                                  : Yes\nForced                                   : No\n\nMenu\n00:00:00.000                             : en:Chapter 1\n00:02:35.113                             : en:Chapter 2\n00:04:51.750                             : en:Chapter 3\n00:09:01.249                             : en:Chapter 4\n00:12:21.115                             : en:Chapter 5\n00:14:04.927                             : en:Chapter 6\n00:18:33.029                             : en:Chapter 7\n00:21:56.982                             : en:Chapter 8\n00:23:24.737                             : en:Chapter 9\n00:26:49.775                             : en:Chapter 10\n00:28:37.257                             : en:Chapter 11\n00:30:25.657                             : en:Chapter 12\n00:32:48.633                             : en:Chapter 13\n00:36:03.411                             : en:Chapter 14\n00:38:33.561                             : en:Chapter 15\n00:41:34.534                             : en:Chapter 16\n00:44:38.843                             : en:Chapter 17\n00:48:02.630                             : en:Chapter 18\n00:52:10.961                             : en:Chapter 19\n00:55:17.481                             : en:Chapter 20\n01:00:14.778                             : en:Chapter 21\n01:03:58.084                             : en:Chapter 22\n01:05:48.736                             : en:Chapter 23\n01:08:44.203                             : en:Chapter 24\n01:10:47.285                             : en:Chapter 25\n01:12:37.144                             : en:Chapter 26\n01:14:01.687                             : en:Chapter 27\n01:19:48.575                             : en:Chapter 28\n01:23:09.860                             : en:Chapter 29\n01:25:16.862                             : en:Chapter 30\n01:28:04.321                             : en:Chapter 31\n01:30:02.272                             : en:Chapter 32\n","torrent":{"xt":"urn:btih:d90ba4a2b0b91df77f9a1313e27d4876c8b6c115","amp;dn":"The+Croods+%282013%29+BRrip+720p+x264+Dual+Audio+%5BEng+DD+5.1-Hindi+D","amp;tr":["udp%3A%2F%2Ftracker.openbittorrent.com%3A80","udp%3A%2F%2Fopen.demonii.com%3A1337","udp%3A%2F%2Ftracker.coppersurfer.tk%3A6969","udp%3A%2F%2Fexodus.desync.com%3A6969"],"infoHash":"d90ba4a2b0b91df77f9a1313e27d4876c8b6c115","infoHashBuffer":{"type":"Buffer","data":[217,11,164,162,176,185,29,247,127,154,19,19,226,125,72,118,200,182,193,21]},"announce":[],"urlList":[]}}